# File created by Blade
# Date/Time:  Wed Apr 08 17:31:45 2015
#---------------------------------------------------------
:version 1.10
:name HOM
:units
  mass 1.0
  length 1.000000
  angle deg
:documentation
     Acclaim Skeleton File
:root
   axis xyz
   order TX TY TZ RX RY RZ
   position 0.000000 0.000000 0.000000
   orientation 0 0 0
:bonedata
   begin
      id 1
      name Spine_dum
      direction 0.000000 1.000000 0.000000
      length 5.893853
      axis 0.0 0.0 0.0 xyz
   end
   begin
      id 2
      name LeftUpLeg_dum
      direction 1.000000 0.000000 0.000000
      length 3.697939
      axis 0.0 0.0 0.0 xyz
   end
   begin
      id 3
      name RightUpLeg_dum
      direction -1.000000 0.000000 0.000000
      length 3.697939
      axis 0.0 0.0 0.0 xyz
   end
   begin
      id 4
      name Spine
      direction 0.000000 1.000000 0.000000
      length 0.000000
      axis 0.0 0.0 0.0 xyz
      dof rx ry rz
   end
   begin
      id 5
      name Spine_dum1
      direction 0.000000 1.000000 0.000000
      length 16.447146
      axis 0.0 0.0 0.0 xyz
   end
   begin
      id 6
      name Spine_dum2
      direction 0.000000 1.000000 0.000000
      length 10.900383
      axis 0.0 0.0 0.0 xyz
   end
   begin
      id 7
      name Spine_dum3
      direction 0.000000 1.000000 0.000000
      length 10.900383
      axis 0.0 0.0 0.0 xyz
   end
   begin
      id 8
      name Head
      direction 0.000000 1.000000 0.000000
      length 4.527550
      axis 0.0 0.0 0.0 xyz
      dof rx ry rz
   end
   begin
      id 9
      name LeftShoulder
      direction 1.000000 0.000000 0.000000
      length 8.219464
      axis 0.0 0.0 -90.0 xyz
      dof rx ry rz
   end
   begin
      id 10
      name LeftArm
      direction 1.000000 0.000000 0.000000
      length 11.094937
      axis 0.0 0.0 -90.0 xyz
      dof rx ry rz
   end
   begin
      id 11
      name LeftForeArm
      direction 1.000000 0.000000 0.000000
      length 9.103875
      axis 0.0 0.0 -90.0 xyz
      dof ry rz rx
   end
   begin
      id 12
      name LeftHand
      direction 0.000000 0.000000 0.000000
      length 0.000000
      axis 0.0 0.0 -90.0 xyz
      dof rx ry rz
   end
   begin
      id 13
      name LeftHand_dum1
      direction 0.000000 0.000000 0.000000
      length 0.000000
      axis 0.0 0.0 -90.0 xyz
   end
   begin
      id 14
      name LeftHand_dum2
      direction 1.000000 0.000000 0.000000
      length 3.937000
      axis 0.0 0.0 -90.0 xyz
   end
   begin
      id 15
      name LeftHandThumb1
      direction 0.000000 0.000000 1.000000
      length 3.937000
      axis 0.0 0.0 -90.0 xyz
      dof rx rz ry
   end
   begin
      id 16
      name RightShoulder
      direction -1.000000 0.000000 0.000000
      length 8.219464
      axis 0.0 0.0 90.0 xyz
      dof rx ry rz
   end
   begin
      id 17
      name RightArm
      direction -1.000000 0.000000 0.000000
      length 11.094937
      axis 0.0 0.0 90.0 xyz
      dof rx ry rz
   end
   begin
      id 18
      name RightForeArm
      direction -1.000000 0.000000 0.000000
      length 9.103875
      axis 0.0 0.0 90.0 xyz
      dof ry rz rx
   end
   begin
      id 19
      name RightHand
      direction 0.000000 0.000000 0.000000
      length 0.000000
      axis 0.0 0.0 90.0 xyz
      dof rx ry rz
   end
   begin
      id 20
      name RightHand_dum1
      direction 0.000000 0.000000 0.000000
      length 0.000000
      axis 0.0 0.0 90.0 xyz
   end
   begin
      id 21
      name RightHand_dum2
      direction -1.000000 0.000000 0.000000
      length 3.937000
      axis 0.0 0.0 90.0 xyz
   end
   begin
      id 22
      name RightHandThumb1
      direction 0.000000 0.000000 1.000000
      length 3.937000
      axis 0.0 0.0 90.0 xyz
      dof rx rz ry
   end
   begin
      id 23
      name LeftUpLeg
      direction 0.000000 -1.000000 0.000000
      length 16.181467
      axis 0.0 0.0 0.0 xyz
      dof rx ry rz
   end
   begin
      id 24
      name LeftLeg
      direction 0.000000 -1.000000 0.000000
      length 16.501392
      axis 0.0 0.0 0.0 xyz
      dof rx ry rz
   end
   begin
      id 25
      name LeftFoot
      direction 0.000000 -0.258819 0.965926
      length 6.408245
      axis 15.0 0.0 0.0 xyz
      dof rx ry rz
   end
   begin
      id 26
      name LeftToeBase
      direction 0.000000 0.000000 1.000000
      length 2.952750
      axis 0.0 0.0 0.0 xyz
      dof rx ry rz
   end
   begin
      id 27
      name RightUpLeg
      direction 0.000000 -1.000000 0.000000
      length 16.181467
      axis 0.0 0.0 0.0 xyz
      dof rx ry rz
   end
   begin
      id 28
      name RightLeg
      direction 0.000000 -1.000000 0.000000
      length 16.501392
      axis 0.0 0.0 0.0 xyz
      dof rx ry rz
   end
   begin
      id 29
      name RightFoot
      direction 0.000000 -0.258819 0.965926
      length 6.408245
      axis 15.0 0.0 0.0 xyz
      dof rx ry rz
   end
   begin
      id 30
      name RightToeBase
      direction 0.000000 0.000000 1.000000
      length 2.952750
      axis 0.0 0.0 0.0 xyz
      dof rx ry rz
   end
:hierarchy
   begin
      root Spine_dum LeftUpLeg_dum RightUpLeg_dum
      Spine_dum Spine
      LeftUpLeg_dum LeftUpLeg
      RightUpLeg_dum RightUpLeg
      Spine Spine_dum1 Spine_dum2 Spine_dum3
      Spine_dum1 Head
      Spine_dum2 LeftShoulder
      Spine_dum3 RightShoulder
      LeftShoulder LeftArm
      LeftArm LeftForeArm
      LeftForeArm LeftHand
      LeftHand LeftHand_dum1 LeftHand_dum2
      LeftHand_dum1 LeftHandThumb1
      RightShoulder RightArm
      RightArm RightForeArm
      RightForeArm RightHand
      RightHand RightHand_dum1 RightHand_dum2
      RightHand_dum1 RightHandThumb1
      LeftUpLeg LeftLeg
      LeftLeg LeftFoot
      LeftFoot LeftToeBase
      RightUpLeg RightLeg
      RightLeg RightFoot
      RightFoot RightToeBase
   end

# File created by Blade
# Date/Time:  Wed Apr 08 17:31:39 2015
# Frame Rate: 120.000 fps
#------------------------------------------------------
:FULLY-SPECIFIED
:DEGREES
111
root 7.508603 35.968973 -2.609307 -120.562076 -87.409606 140.305305
Spine -16.168659 2.799080 0.784639
Head 13.687445 9.190891 2.403464
LeftShoulder -4.800040 15.866780 23.417394
LeftArm 23.743786 -14.333968 -67.888145
LeftForeArm 18.434600 -0.000000 40.628730
LeftHand -12.240788 -0.000000 -8.165937
LeftHandThumb1 -26.253704 0.000000 33.147579
RightShoulder -20.763644 -42.740014 -8.332946
RightArm 61.394716 27.902579 50.296404
RightForeArm 6.230248 -0.000000 39.587596
RightHand -2.341839 -0.000000 5.612362
RightHandThumb1 -24.326973 -0.000000 -32.862282
LeftUpLeg -34.907544 14.781620 4.890357
LeftLeg 31.011954 -0.000000 -0.000000
LeftFoot -7.394704 5.545179 -13.317334
LeftToeBase -8.228940 -0.000000 0.000000
RightUpLeg -28.420052 -3.934603 -3.176816
RightLeg 21.161636 -0.000000 -0.000000
RightFoot -16.529194 -4.635583 17.820371
RightToeBase 8.982755 -0.000000 -0.000000
112
root 7.516832 35.973114 -2.619917 -118.393572 -87.350067 138.018115
Spine -15.895830 2.822585 0.780576
Head 13.792548 9.295063 2.320039
LeftShoulder -4.865286 15.979662 23.224221
LeftArm 23.685618 -13.662195 -68.647662
LeftForeArm 18.756119 -0.000000 41.372751
LeftHand -12.264406 0.000000 -8.189799
LeftHandThumb1 -26.253704 0.000000 33.147579
RightShoulder -20.851218 -42.856213 -8.106058
RightArm 61.581195 27.316139 50.173560
RightForeArm 6.009926 -0.000000 40.221366
RightHand -2.325568 0.000000 5.664235
RightHandThumb1 -24.326973 -0.000000 -32.862282
LeftUpLeg -34.935576 14.698385 4.731730
LeftLeg 30.926187 -0.000000 -0.000000
LeftFoot -7.654353 5.286292 -13.316945
LeftToeBase -8.756090 -0.000000 0.000000
RightUpLeg -28.314128 -3.913760 -3.284181
RightLeg 21.170084 -0.000000 -0.000000
RightFoot -16.573558 -4.733182 17.779866
RightToeBase 8.972933 -0.000000 -0.000000
113
root 7.526243 35.978449 -2.627546 -116.534741 -87.279185 136.087564
Spine -15.683159 2.837275 0.772673
Head 13.915559 9.421297 2.257001
LeftShoulder -4.951246 16.109855 23.064176
LeftArm 23.664866 -12.947991 -69.489977
LeftForeArm 19.069104 -0.000000 42.013536
LeftHand -12.382190 -0.000000 -8.102189
LeftHandThumb1 -26.253704 0.000000 33.147579
RightShoulder -20.897993 -42.972726 -7.911141
RightArm 61.839361 26.734320 50.218383
RightForeArm 5.702628 -0.000000 40.834591
RightHand -2.364865 -0.000000 5.807618
RightHandThumb1 -24.326973 -0.000000 -32.862282
LeftUpLeg -34.979633 14.641538 4.544972
LeftLeg 30.736367 -0.000000 -0.000000
LeftFoot -7.924594 5.130004 -13.398123
LeftToeBase -8.998397 -0.000000 0.000000
RightUpLeg -28.256313 -3.887779 -3.393304
RightLeg 21.171095 -0.000000 -0.000000
RightFoot -16.601457 -4.833873 17.749221
RightToeBase 9.020701 -0.000000 -0.000000
114
root 7.535557 35.984158 -2.632189 -114.964494 -87.209936 134.485418
Spine -15.516324 2.864039 0.768257
Head 14.042592 9.541369 2.195545
LeftShoulder -5.022429 16.236719 22.901382
LeftArm 23.549416 -12.021768 -70.164190
LeftForeArm 18.942960 -0.000000 42.671629
LeftHand -12.456047 -0.000000 -7.744846
LeftHandThumb1 -26.253704 0.000000 33.147579
RightShoulder -20.952978 -43.132358 -7.722571
RightArm 62.083205 26.123932 50.237863
RightForeArm 5.480040 -0.000000 41.434303
RightHand -2.342419 -0.000000 5.784617
RightHandThumb1 -24.326973 -0.000000 -32.862282
LeftUpLeg -35.050591 14.638698 4.331863
LeftLeg 30.479369 -0.000000 -0.000000
LeftFoot -8.224285 4.985775 -13.408153
LeftToeBase -8.918861 -0.000000 0.000000
RightUpLeg -28.236308 -3.873813 -3.491960
RightLeg 21.163323 -0.000000 -0.000000
RightFoot -16.604596 -4.912789 17.726318
RightToeBase 9.013679 -0.000000 -0.000000
115
root 7.544410 35.989083 -2.637395 -113.667664 -87.159889 133.161351
Spine -15.349412 2.898159 0.772360
Head 14.144619 9.630635 2.142369
LeftShoulder -5.081033 16.396528 22.707430
LeftArm 23.413221 -11.016364 -70.685004
LeftForeArm 18.743200 0.000000 43.349935
LeftHand -12.359425 0.000000 -7.525113
LeftHandThumb1 -26.253704 0.000000 33.147579
RightShoulder -21.016096 -43.300369 -7.488383
RightArm 62.292779 25.530467 50.244813
RightForeArm 5.283042 -0.000000 42.078078
RightHand -2.380334 -0.000000 5.775609
RightHandThumb1 -24.326973 -0.000000 -32.862282
LeftUpLeg -35.104572 14.664723 4.134089
LeftLeg 30.164256 -0.000000 -0.000000
LeftFoot -8.536707 4.942379 -13.473138
LeftToeBase -8.985406 -0.000000 0.000000
RightUpLeg -28.214764 -3.871068 -3.561352
RightLeg 21.149248 -0.000000 -0.000000
RightFoot -16.607960 -4.988872 17.705573
RightToeBase 8.997500 -0.000000 -0.000000
116
root 7.553955 35.993569 -2.639626 -112.188870 -87.116250 131.664523
Spine -15.179814 2.889950 0.773909
Head 14.208166 9.743872 2.118805
LeftShoulder -5.155247 16.554668 22.539742
LeftArm 23.290317 -10.129302 -71.376190
LeftForeArm 18.753629 -0.000000 44.000293
LeftHand -12.447743 0.000000 -7.511993
LeftHandThumb1 -26.253704 0.000000 33.147579
RightShoulder -21.151700 -43.564307 -7.114420
RightArm 62.617328 25.011188 50.162557
RightForeArm 5.160069 -0.000000 42.682348
RightHand -2.401583 -0.000000 5.634701
RightHandThumb1 -24.326973 -0.000000 -32.862282
LeftUpLeg -35.143004 14.660721 3.933793
LeftLeg 29.768575 -0.000000 -0.000000
LeftFoot -8.825320 4.996934 -13.600629
LeftToeBase -9.069173 -0.000000 0.000000
RightUpLeg -28.201485 -3.899459 -3.632618
RightLeg 21.132942 -0.000000 -0.000000
RightFoot -16.611924 -5.029794 17.700283
RightToeBase 9.001373 -0.000000 -0.000000
117
root 7.561512 35.997938 -2.638652 -111.015931 -87.077979 130.462759
Spine -14.997942 2.894174 0.786521
Head 14.274074 9.848869 2.097664
LeftShoulder -5.224864 16.774784 22.360891
LeftArm 23.268987 -9.389979 -72.166285
LeftForeArm 18.996242 -0.000000 44.550414
LeftHand -12.297797 0.000000 -7.562786
LeftHandThumb1 -26.253704 0.000000 33.147579
RightShoulder -21.236012 -43.763036 -6.819568
RightArm 62.871976 24.426375 50.127783
RightForeArm 5.037197 -0.000000 43.269593
RightHand -2.421612 -0.000000 5.612904
RightHandThumb1 -24.326973 -0.000000 -32.862282
LeftUpLeg -35.145915 14.669856 3.737501
LeftLeg 29.315747 -0.000000 -0.000000
LeftFoot -9.147277 5.129495 -13.708730
LeftToeBase -9.007594 -0.000000 0.000000
RightUpLeg -28.171503 -3.944089 -3.690978
RightLeg 21.111780 -0.000000 -0.000000
RightFoot -16.598779 -5.034003 17.695158
RightToeBase 9.035710 -0.000000 -0.000000
118
root 7.569363 36.001350 -2.637680 -110.086044 -87.058373 129.511491
Spine -14.813198 2.890842 0.819869
Head 14.312819 9.989900 2.074053
LeftShoulder -5.267275 16.963522 22.171241
LeftArm 23.182632 -8.774879 -73.019989
LeftForeArm 19.427691 -0.000000 45.122671
LeftHand -12.197003 -0.000000 -7.824986
LeftHandThumb1 -26.253704 0.000000 33.147579
RightShoulder -21.312744 -43.942828 -6.556341
RightArm 63.159646 23.811322 50.176295
RightForeArm 4.854377 0.000000 43.822079
RightHand -2.465483 0.000000 5.631726
RightHandThumb1 -24.326973 -0.000000 -32.862282
LeftUpLeg -35.144741 14.690813 3.563935
LeftLeg 28.839011 -0.000000 -0.000000
LeftFoot -9.438111 5.302728 -13.699433
LeftToeBase -8.966125 -0.000000 0.000000
RightUpLeg -28.140998 -3.974721 -3.727684
RightLeg 21.072669 -0.000000 -0.000000
RightFoot -16.581570 -5.072167 17.680483
RightToeBase 9.019363 -0.000000 -0.000000
119
root 7.575081 36.004421 -2.633824 -109.257458 -87.050327 128.657937
Spine -14.616355 2.886372 0.863200
Head 14.328604 10.056552 2.039773
LeftShoulder -5.323130 17.122515 21.956048
LeftArm 23.086212 -8.241947 -73.907951
LeftForeArm 20.146208 -0.000000 45.599717
LeftHand -11.828754 -0.000000 -8.109681
LeftHandThumb1 -26.253704 0.000000 33.147579
RightShoulder -21.397568 -44.089272 -6.290425
RightArm 63.407276 23.151011 50.163904
RightForeArm 4.652395 -0.000000 44.349297
RightHand -2.488836 -0.000000 5.567732
RightHandThumb1 -24.326973 -0.000000 -32.862282
LeftUpLeg -35.119117 14.693603 3.407667
LeftLeg 28.328379 -0.000000 -0.000000
LeftFoot -9.704976 5.475231 -13.730059
LeftToeBase -8.886897 -0.000000 0.000000
RightUpLeg -28.091885 -4.026118 -3.751324
RightLeg 21.014434 -0.000000 -0.000000
RightFoot -16.555728 -5.083023 17.667130
RightToeBase 9.032257 -0.000000 -0.000000
120
root 7.580958 36.007881 -2.627416 -108.373984 -87.045138 127.774664
Spine -14.452551 2.880557 0.904610
Head 14.364429 10.168472 2.009683
LeftShoulder -5.359086 17.289583 21.739745
LeftArm 23.012271 -7.688825 -74.784138
LeftForeArm 20.778042 -0.000000 46.010641
LeftHand -11.749391 -0.000000 -8.259352
LeftHandThumb1 -26.253704 0.000000 33.147579
RightShoulder -21.493327 -44.220974 -6.013628
RightArm 63.647198 22.466785 50.142987
RightForeArm 4.432759 -0.000000 44.852818
RightHand -2.478143 0.000000 5.588763
RightHandThumb1 -24.326973 -0.000000 -32.862282
LeftUpLeg -35.094979 14.643844 3.264388
LeftLeg 27.779109 -0.000000 -0.000000
LeftFoot -9.923658 5.635476 -13.777410
LeftToeBase -8.704877 -0.000000 0.000000
RightUpLeg -28.064783 -4.054331 -3.785131
RightLeg 20.962250 -0.000000 -0.000000
RightFoot -16.529926 -5.101711 17.674694
RightToeBase 8.965182 -0.000000 -0.000000
121
root 7.587018 36.010580 -2.619338 -107.796942 -87.045392 127.207560
Spine -14.295150 2.880976 0.943977
Head 14.398813 10.233206 2.006093
LeftShoulder -5.402259 17.437731 21.535069
LeftArm 22.932187 -7.116521 -75.661471
LeftForeArm 21.371555 -0.000000 46.346776
LeftHand -11.685101 -0.000000 -8.386625
LeftHandThumb1 -26.253704 0.000000 33.147579
RightShoulder -21.558408 -44.325255 -5.760438
RightArm 63.905143 21.764852 50.195423
RightForeArm 4.200276 0.000000 45.277449
RightHand -2.452020 -0.000000 5.727306
RightHandThumb1 -24.326973 -0.000000 -32.862282
LeftUpLeg -35.076839 14.601656 3.128314
LeftLeg 27.225624 -0.000000 -0.000000
LeftFoot -10.091068 5.755088 -13.854283
LeftToeBase -8.580055 -0.000000 0.000000
RightUpLeg -28.045704 -4.068507 -3.811186
RightLeg 20.893448 -0.000000 -0.000000
RightFoot -16.503041 -5.131174 17.694649
RightToeBase 8.940509 -0.000000 -0.000000
